<?xml version="1.0" encoding="UTF-8"?>
<svg id="Layer_1" xmlns="http://www.w3.org/2000/svg" version="1.1" viewBox="0 0 194 72">
  <!-- Generator: Adobe Illustrator 30.1.0, SVG Export Plug-In . SVG Version: 2.1.1 Build 136)  -->
  <defs>
    <style>
      .st0 {
        fill: #fff;
      }
    </style>
  </defs>
  <path class="st0" d="M43.6,34.6h-.3c-.3-2-.8-1.9-1.3-3.3h-.3c-.5,3.4,1.2,3.4,1,6.5h.3c.6-.4,3.6-3.7,1.8-7.6-.1,0-.2,0-.3,0,.2,2.8-.4,2.3-.9,4.3M41.8,35.8c-1.9,3.3,0,3.2-2,6.8.1.1.2.2.2.2.2,0,5.5-1.7,5.5-7.1h-.3c-.5,1.7-2.2,2.6-3,4.2l-.3-.2c.7-2.1,0-2.5.3-3.9-.1,0-.3,0-.3,0ZM42,28.4c.2,0,.3-.1.3-.1-.4-1.3-.8-2.4-3.2-3.7,0,0-.2.2-.2.2,1.4,1.2,1,2.1,3.1,3.6ZM42.6,29.8c-.6-.9-1.5-1.1-2.4-2.5l-.3.2c.7,3.3,2.4,2.4,3.3,5.3.2,0,.3,0,.3,0,.4-.7,1.4-5.2-1.5-6.8l-.3.2c1.2,1.6.9,2.5,1.1,3.6h-.3ZM38.5,44.2l-.2-.3c1.4-1.5,1.3-2.3,2-3.6,0,0-.2-.1-.3-.2-2.7,1.6-2.2,4.1-5.6,4,0,.1.1.3.1.3,2.3,1.3,6.2,2.4,9.3-3-.1,0-.3-.2-.3-.2-2,2.1-3.2,1.6-5.1,2.9M30.7,44.7c-3.4-1.2-5.5,2.7-9.5,1l-.2.3c4.2,3.8,6.3-1.5,9.1-1-.8.4-1.6,1-2.6,2.1.3.3.5.5.8.8.9-1.5,1.7-2.3,2.5-2.7.7.4,1.6,1.2,2.5,2.7.4-.4.5-.5.8-.8-1-1-1.8-1.7-2.6-2.1,2.8-.5,4.9,4.8,9.1,1l-.2-.3c-4.1,1.7-6.1-2.2-9.5-1M26.9,44.4s0-.2.1-.3c-3.3.2-2.9-2.3-5.6-4,0,0-.3.2-.3.2.7,1.3.6,2,2,3.6l-.2.3c-1.9-1.3-3.1-.7-5.1-2.9,0,0-.2,0-.3.2,3.1,5.3,7,4.3,9.3,3M18.5,37.9h.3c-.2-3.2,1.5-3.1,1-6.5h-.3c-.5,1.3-1,1.2-1.3,3.2h-.3c-.5-2-1.1-1.5-.9-4.3-.1,0-.2,0-.3,0-1.8,3.9,1.2,7.2,1.8,7.7M19.5,28.4c2.1-1.5,1.7-2.3,3.1-3.6,0,0-.1-.2-.2-.2-2.4,1.3-2.8,2.4-3.2,3.7,0,0,.1,0,.3.1M21.5,42.8l.2-.2c-2.1-3.5-.1-3.4-2-6.8,0,0-.2,0-.3,0,.2,1.4-.4,1.8.3,3.9l-.3.2c-.9-1.6-2.6-2.5-3-4.3h-.3c0,5.5,5.3,7.1,5.5,7.2M18.2,32.8c.9-2.9,2.6-2,3.3-5.3l-.3-.2c-.9,1.4-1.8,1.7-2.4,2.5h-.3c.2-1.2-.2-2.1,1.1-3.7l-.3-.2c-2.8,1.6-1.9,6.1-1.5,6.8,0,0,.1,0,.3,0Z"/>
  <path class="st0" d="M30.7,24c-5.5,0-9.9,4.4-9.9,9.9s4.4,9.9,9.9,9.9,9.9-4.4,9.9-9.9-4.4-9.9-9.9-9.9ZM40,33.6h-2c0-1.8-.8-3.3-1.9-4.6l1.4-1.4c1.5,1.6,2.4,3.7,2.5,6M35.6,28.5c-1.2-1.1-2.8-1.8-4.6-1.9v-2c2.3,0,4.4,1,6,2.5l-1.4,1.4h0ZM32,33.9c0,.7-.6,1.3-1.3,1.3s-1.3-.6-1.3-1.3.6-1.3,1.3-1.3,1.3.6,1.3,1.3ZM30.4,31.9c-.3,0-.6.2-.8.3l-1.4-1.4c.6-.5,1.4-.8,2.2-.9v2h0ZM29.6,35.5c.2.2.5.3.8.3v2c-.8,0-1.6-.4-2.2-.9l1.4-1.4h0ZM31.1,35.8c.3,0,.6-.2.8-.3l1.4,1.4c-.6.5-1.4.8-2.2.9v-2h0ZM31.9,32.3c-.2-.2-.5-.3-.8-.3v-2c.8,0,1.6.4,2.2.9l-1.4,1.4h0ZM30.4,29.3c-1,0-2,.5-2.7,1.1l-1.4-1.4c1.1-1,2.5-1.6,4.1-1.7v2h0ZM29.1,32.7c-.2.2-.3.5-.3.8h-2c0-.8.4-1.6.9-2.2l1.4,1.4h0ZM28.8,34.2c0,.3.2.6.3.8l-1.4,1.4c-.5-.6-.8-1.4-.9-2.2h2ZM27.7,37.4c.7.6,1.7,1,2.7,1.1v2c-1.6,0-3-.7-4.1-1.7l1.4-1.4h0ZM31.1,38.5c1,0,2-.5,2.7-1.1l1.4,1.4c-1.1,1-2.5,1.6-4.1,1.7v-2h0ZM32.3,35c.2-.2.3-.5.3-.8h2c0,.8-.4,1.6-.9,2.2l-1.4-1.4h0ZM32.7,33.6c0-.3-.2-.6-.3-.8l1.4-1.4c.5.6.8,1.4.9,2.2h-2ZM33.7,30.4c-.7-.6-1.7-1-2.7-1.1v-2c1.6,0,3,.7,4.1,1.7l-1.4,1.4h0ZM30.4,26.6c-1.8,0-3.3.8-4.6,1.9l-1.4-1.4c1.6-1.5,3.7-2.4,6-2.5v2ZM27.2,30.9c-.6.7-1,1.7-1.1,2.7h-2c0-1.6.7-3,1.7-4.1l1.4,1.4ZM26.1,34.2c0,1,.5,2,1.1,2.7l-1.4,1.4c-1-1.1-1.6-2.5-1.7-4.1h2ZM25.8,39.2c1.2,1.1,2.8,1.8,4.6,1.9v2c-2.3,0-4.4-1-6-2.5l1.4-1.4ZM31.1,41.1c1.8,0,3.3-.8,4.6-1.9l1.4,1.4c-1.6,1.5-3.7,2.4-6,2.5v-2ZM34.2,36.9c.6-.7,1-1.7,1.1-2.7h2c0,1.6-.7,3-1.7,4.1l-1.4-1.4ZM35.3,33.6c0-1-.5-2-1.1-2.7l1.4-1.4c1,1.1,1.6,2.5,1.7,4.1h-2ZM24,27.6l1.4,1.4c-1.1,1.2-1.8,2.8-1.9,4.6h-2c0-2.3,1-4.4,2.5-6ZM21.5,34.2h2c0,1.8.8,3.3,1.9,4.6l-1.4,1.4c-1.5-1.6-2.4-3.7-2.5-6ZM37.5,40.2l-1.4-1.4c1.1-1.2,1.8-2.8,1.9-4.6h2c0,2.3-1,4.4-2.5,6Z"/>
  <path class="st0" d="M32,26l.6-.2h.3c0,.1.3-.1.3-.1h0c0,0-.5-.4-.5-.4h-.1s-.7.3-.7.3h-.2c0,0,0,0,0,0l.4.3h0,0ZM36.1,26.9l-.2-.4h-.4s0,.2,0,.2l.6.2h0c0,0,0,0,0,0ZM37.6,29.4l-.4-.2v-.4s-1.5-1.6-1.5-1.6l-1-.3v.4c-.1,0,.4.3.4.3v.8c-.1,0,.3,0,.3,0l.3.3v.6c0,0,.5.2.5.2l.4.7.6-.3.4.8.5-.2v-.3c0,0-.6-1-.6-1h0ZM36.5,34.9v.2s.3.3.3.3h.1c0-.1,0-.3,0-.3l-.3-.2h-.2s0,0,0,0ZM36.9,33h.1v-.5h-.2c0,.1,0,.4,0,.4l-.2.5v.5s.6.3.6.3v-.9c0,0-.2-.2-.2-.2h0ZM30.9,34.3h0c0,0-.5,0-.5,0v.4c-.1,0-.6.5-.6.5l.3.2.7-.5.2-.6h0ZM36.2,38.1h0s0,.2,0,.2v.2c-.1,0-.2.6-.2.6l.2.2h.4s.1-.3.1-.3v-.6c-.1,0-.5-.3-.5-.3h0ZM34.8,36l.2-.5v.3c.1,0,.3,0,.3,0v-.3c0,0,.3.1.3.1l.9-.3-.2-.5-.3-.2-.3-.5.4-.8h.3c0,0,.2-.4.2-.4l.2-1.1v-.4c-.1,0-.4,0-.4,0v-.3c.1,0-.1,0-.1,0v-.2c.1,0,0-.1,0-.1h-.3c0,.1-.3-.4-.3-.4h-.2s0-.2,0-.2l-1.5-1.4h0c0,0,.1.6.1.6l1.5,1.9v.6s.6.4.6.4l.2.8-.2.4h-.2s.2-.6.2-.6l-.4-.4-.3.2h-.1c0-.1,0-.4,0-.4l-.4-.4h-.9c0-.1-.4.4-.4.4l-.5-.7h-.3c0,0,.2.2.2.2v.3c-.1,0-.4,0-.4,0l-.5.5h-.4l-.3-.2v-.2c0,0,.6-.3.6-.3v-.4c.1,0,0-.1,0-.1l-.5.4-1.2-.3-.4.2v.5c-.1,0-1.8-.4-1.8-.4l-1.4.7v.2c0,0-.4,0-.4,0l-.2.8v.6c0,0-.6.8-.6.8v.8s-.7-.6-.7-.6h-.2s-.5.5-.5.5v.4c0,0,0,.4,0,.4l-.2.2-.8-.4h-.2c0,0,0,.2,0,.2h-.1s-.1,0-.1,0h-.2l-.2.6.2.7.6.4v-.3c.1,0,.5.5.5.5l.7.4.2.5.8.6h.5c0-.1.5.1.5.1l.6-.3h.5c0,0,.1-.1.1-.1l-1-1.2.2-.3-.4-.6v-.7c0,0-.4-1.1-.4-1.1v-.5c0,0,.4-.2.4-.2l.5-1.3h.2s0,1.5,0,1.5h-.5s-.1.6-.1.6h.2c0,.1.2-.4.2-.4l1.4.3h0c0,.1.5.7.5.7l.9-.9.3-.6v-.2s-.2,0-.2,0v.2s-1.3.4-1.3.4l.5-1h.4s.4.3.4.3h.2s0-.6,0-.6h.4c0-.1,0-.5,0-.5h.5c0,0-.2-.6-.2-.6h.2c0-.1.4,0,.4,0l-.4.2.2.3h.1c0-.1.4.3.4.3h.3v.2c0,0,.2.1.2.1l-.2.3.3.3v.4s.2,0,.2,0l-.3.6h-.4s-.7,1.2-.7,1.2h.1c0,.1-.1.2-.1.2v.2s.2.2.2.2h-.4c0,0,0,.6,0,.6l.9-.6.6.3h.3v-.2h.1c0-.1.2,0,.2,0l.4-.3.2.3-.3.3-.6.2v.2s-.6-.1-.6-.1l-.2-.2h-.5c0,.1-.5,0-.5,0l-.8.5-.3.5.2.6,1.8.9h.5c0,0-.1.4-.1.4l.3.4,1.3,1.1h.3s.8-.6.8-.6l.8-1.6-.2-.2.4-.6-.9-.2v-.3s.5-.3.5-.3v-.6c0,0,0-.5,0-.5h-.2s-.1.5-.1.5h0c0,.1-.8.3-.8.3l-.9-.5v-.2c.1,0,1.5.4,1.5.4l.4-1.1-.3-.2h-.2s-.6.3-.6.3h0c0-.1.8-.5.8-.5h0ZM32.8,36.4l-.2.2h-.3c0,0,0-.3,0-.3h.2c0-.1.4,0,.4,0h0ZM33.4,36.1l-.3-.2v-.3c-.1,0,.1-.2.1-.2l.2.2v.3c0,0,0,.2,0,.2h0Z"/>
  <path class="st0" d="M73.5,24.5v16.9c0,3.4-2.5,6.4-11,6.4s-11-3-11-6.4v-16.9h6.3v16.4c0,1.8,1.4,2.9,4.8,2.9s4.8-1.1,4.8-2.9v-16.4h6.3Z"/>
  <path class="st0" d="M84.9,31.8v15.4h-5.9v-22.6h7.8l9.6,16.1v-16.1h5.9v22.6h-7.8l-9.5-15.4Z"/>
  <path class="st0" d="M135.4,24.5h10.9c6.5,0,8.7,2.1,8.7,5.6v3.4c0,3.5-2.3,5.6-8.7,5.6h-7v8.1h-3.9v-22.6ZM146.1,27.2h-6.9v9.3h6.9c3.7,0,5.1-.8,5.1-3.4v-2.5c0-2.5-1.4-3.4-5.1-3.4"/>
  <path class="st0" d="M119.1,24c-7.8,0-10.9,2.2-10.9,6v11.8c0,3.8,3.1,6,10.9,6s10.9-2.2,10.9-6v-11.8c0-3.8-3.1-6-10.9-6ZM126.2,41.6c0,2.8-2.3,3.5-7,3.5s-7-.7-7-3.5v-11.6c0-2.8,2.3-3.5,7-3.5s7,.7,7,3.5v11.6Z"/>
  <path class="st0" d="M168,47.6c-2.9,0-5.9-.4-8.4-1.2l.6-2.4c2.8.6,5.1,1,7.9,1,4.8,0,5.8-.9,5.8-3.5s0-3.4-6.3-4.5c-7.3-1.2-8.1-2.4-8.1-7.1s2.2-5.8,9.6-5.8,5.2.3,7.6.7l-.3,2.5c-2.4-.4-4.7-.6-7.2-.6-4.9,0-5.8.7-5.8,3.3s0,3.4,6,4.5c8,1.5,8.4,2.5,8.4,6.9s-1.5,6.2-9.8,6.2Z"/>
</svg>