<svg width="194" height="72" viewBox="0 0 194 72" fill="none" xmlns="http://www.w3.org/2000/svg">
<path d="M43.571 34.5669L43.2402 34.5506C42.9645 32.5952 42.4814 32.6925 41.9625 31.3013L41.6415 31.3759C41.155 34.729 42.8673 34.6674 42.65 37.7708L42.9613 37.8714C43.5483 37.3428 46.5544 34.0804 44.7449 30.1403C44.6184 30.1728 44.5471 30.1955 44.4271 30.2279C44.6476 33.0168 44.0315 32.5628 43.571 34.5701M41.7712 35.8413C39.8611 39.1555 41.8328 39.0907 39.7444 42.5962C39.8546 42.7032 39.9779 42.8265 39.9779 42.8265C40.1919 42.7422 45.4583 41.1726 45.4583 35.7051L45.1308 35.663C44.6508 37.4336 42.9354 38.3318 42.0825 39.9306L41.7939 39.7782C42.4489 37.6703 41.8685 37.2812 42.0955 35.8997C41.9917 35.8835 41.7712 35.8413 41.7712 35.8413ZM41.9949 28.4021C42.1506 28.3276 42.2868 28.2595 42.2868 28.2595C41.9301 27.0012 41.4955 25.8727 39.112 24.5885C39.0342 24.6761 38.8947 24.8285 38.8947 24.8285C40.2957 26.0705 39.9 26.9007 41.9949 28.4021ZM42.5819 29.816C41.969 28.9567 41.061 28.6908 40.1919 27.2834L39.9195 27.4682C40.6426 30.7565 42.3225 29.9101 43.2142 32.8027C43.3926 32.7833 43.5385 32.7735 43.5385 32.7735C43.9342 32.0536 44.9038 27.5525 42.076 25.9505L41.8068 26.1419C43.0521 27.7147 42.7019 28.6421 42.8932 29.7123L42.5819 29.816ZM38.4699 44.1658L38.2689 43.9064C39.6698 42.3854 39.5725 41.6428 40.3021 40.3554C40.3021 40.3554 40.127 40.2387 40.0297 40.1673C37.3414 41.805 37.7954 44.2955 34.452 44.1269C34.5006 44.2566 34.5655 44.4349 34.5655 44.4349C36.8582 45.7483 40.7399 46.8217 43.8661 41.4807C43.7364 41.4061 43.5774 41.3153 43.5774 41.3153C41.6058 43.4199 40.4092 42.9043 38.4667 44.1658M30.7259 44.6717C27.282 43.5172 25.2682 47.386 21.1821 45.6802L20.9746 45.9364C25.1255 49.776 27.2528 44.4576 30.0741 44.9473C29.2893 45.3397 28.43 45.9915 27.4571 47.0163C27.7652 47.3471 27.9143 47.4962 28.2646 47.8627C29.1726 46.3515 29.9801 45.5343 30.7259 45.1646C31.475 45.5343 32.2793 46.3515 33.1905 47.8627C33.544 47.4962 33.6899 47.3471 34.0012 47.0163C33.0284 45.9915 32.1658 45.3397 31.3842 44.9473C34.2055 44.4576 36.3329 49.776 40.4837 45.9364L40.2762 45.6802C36.1869 47.386 34.1763 43.5205 30.7292 44.6717M26.8928 44.4317C26.8928 44.4317 26.9544 44.2533 27.0063 44.1236C23.6597 44.2923 24.1137 41.8017 21.4253 40.1641C21.3281 40.2354 21.1529 40.3522 21.1529 40.3522C21.8826 41.6428 21.7853 42.3854 23.1862 43.9031L22.9852 44.1625C21.0427 42.8978 19.8461 43.4167 17.8711 41.3121C17.8711 41.3121 17.7187 41.4029 17.5858 41.4774C20.7151 46.8185 24.5936 45.7451 26.8896 44.4317M18.497 37.8681L18.8116 37.7676C18.5911 34.6641 20.3033 34.7258 19.8169 31.3726L19.4958 31.298C18.977 32.6925 18.4938 32.5919 18.2149 34.5474L17.8874 34.5636C17.4269 32.5595 16.814 33.0103 17.0312 30.2214C16.908 30.189 16.8399 30.1663 16.7134 30.1338C14.9039 34.0772 17.9101 37.3363 18.5003 37.8649M19.4634 28.3957C21.5615 26.8942 21.1627 26.064 22.5668 24.822C22.5668 24.822 22.4241 24.6663 22.3496 24.582C19.9628 25.8662 19.5315 26.9947 19.1748 28.253C19.1748 28.253 19.311 28.3211 19.4666 28.3957M21.4837 42.82C21.4837 42.82 21.6069 42.6968 21.714 42.5897C19.6255 39.0842 21.5972 39.1458 19.6904 35.8348C19.6904 35.8348 19.4699 35.877 19.3661 35.8932C19.5931 37.2747 19.0126 37.6638 19.6677 39.7717L19.3791 39.9241C18.5262 38.3221 16.8107 37.4271 16.334 35.6565L16 35.7019C16 41.1726 21.2664 42.7389 21.4805 42.8232M18.2441 32.8027C19.1359 29.9101 20.8157 30.7565 21.5421 27.4682L21.2697 27.2834C20.4006 28.6908 19.4893 28.9567 18.8764 29.816L18.5651 29.7123C18.7564 28.6421 18.4062 27.7147 19.6515 26.1419L19.3823 25.9505C16.5545 27.5525 17.5242 32.0504 17.9198 32.7735C17.9198 32.7735 18.0657 32.7833 18.2441 32.8027Z" fill="#004976"/>
<path d="M30.7309 24C25.2667 24 20.8369 28.4265 20.8369 33.8908C20.8369 39.355 25.2667 43.7848 30.7309 43.7848C36.1952 43.7848 40.625 39.355 40.625 33.8908C40.625 28.4265 36.192 24 30.7309 24ZM39.9537 33.56H37.9755C37.8977 31.8056 37.1972 30.2134 36.0849 29.0005L37.4826 27.6028C38.9484 29.1756 39.8694 31.2608 39.9504 33.56M35.618 28.5335C34.4051 27.4245 32.8129 26.724 31.0585 26.6429V24.668C33.3577 24.7491 35.4461 25.6701 37.0189 27.1359L35.6212 28.5368L35.618 28.5335ZM32.0476 33.8908C32.0476 34.6204 31.4573 35.2106 30.7277 35.2106C29.9981 35.2106 29.4078 34.6172 29.4078 33.8908C29.4078 33.1644 29.9981 32.5709 30.7277 32.5709C31.4573 32.5709 32.0476 33.1611 32.0476 33.8908ZM30.4002 31.9418C30.0986 31.9937 29.8229 32.1104 29.5862 32.2823L28.1788 30.8717C28.7885 30.356 29.557 30.022 30.4034 29.9507V31.9418H30.4002ZM29.583 35.5025C29.8229 35.6744 30.0986 35.7911 30.4002 35.8398V37.8309C29.5538 37.7628 28.7885 37.4288 28.1756 36.9099L29.583 35.4993V35.5025ZM31.0585 35.8398C31.3601 35.7911 31.6357 35.6744 31.8724 35.5025L33.2831 36.9131C32.6734 37.432 31.9016 37.7628 31.0585 37.8341V35.843V35.8398ZM31.8724 32.2791C31.6325 32.1104 31.3601 31.9905 31.0585 31.9386V29.9474C31.9016 30.0188 32.6702 30.3496 33.2831 30.8652L31.8724 32.2758V32.2791ZM30.3969 29.2891C29.3689 29.3637 28.4382 29.7691 27.7053 30.4014L26.3012 28.9973C27.394 28.0082 28.8241 27.3791 30.3937 27.3013V29.2891H30.3969ZM29.116 32.746C28.9474 32.986 28.8306 33.2617 28.7787 33.56H26.7844C26.8557 32.7169 27.1865 31.9483 27.7053 31.3354L29.1127 32.746H29.116ZM28.7787 34.2216C28.8306 34.5199 28.9474 34.7988 29.116 35.0355L27.7086 36.4429C27.193 35.83 26.8589 35.0615 26.7876 34.2183H28.7787V34.2216ZM27.7086 37.3769C28.4415 38.0092 29.3722 38.4178 30.4002 38.4892V40.4738C28.8274 40.396 27.4005 39.7701 26.3077 38.7778L27.7118 37.3736L27.7086 37.3769ZM31.0585 38.4892C32.0832 38.4178 33.0172 38.0092 33.7468 37.3769L35.151 38.781C34.0581 39.7734 32.6313 40.3992 31.0552 40.4771V38.4924L31.0585 38.4892ZM32.3394 35.0355C32.508 34.7988 32.6248 34.5199 32.6767 34.2216H34.6678C34.5965 35.0647 34.2624 35.8333 33.7468 36.4462L32.3394 35.0388V35.0355ZM32.6767 33.56C32.6248 33.2584 32.508 32.9828 32.3394 32.746L33.7468 31.3354C34.2657 31.9483 34.5965 32.7169 34.6678 33.56H32.6767ZM33.7468 30.4047C33.0172 29.7723 32.0832 29.3637 31.0585 29.2924V27.3045C32.6313 27.3823 34.0581 28.0114 35.1542 29.0005L33.7501 30.4047H33.7468ZM30.3969 26.6462C28.6425 26.7273 27.0503 27.4277 25.8342 28.5368L24.4365 27.1359C26.0093 25.6701 28.0977 24.7491 30.3969 24.668V26.6462ZM27.2384 30.8717C26.606 31.6046 26.2006 32.5353 26.1261 33.56H24.1414C24.216 31.9872 24.8484 30.5603 25.8374 29.4675L27.2384 30.8717ZM26.1261 34.2216C26.1974 35.2463 26.6028 36.177 27.2384 36.9099L25.8342 38.3141C24.8451 37.2212 24.216 35.7911 24.1414 34.2216H26.1261ZM25.8342 39.248C27.047 40.3571 28.6393 41.0608 30.3969 41.1386V43.1168C28.0977 43.0357 26.0093 42.1147 24.4365 40.6489L25.8342 39.248ZM31.0552 41.1386C32.8096 41.0608 34.4019 40.3603 35.618 39.248L37.0156 40.6489C35.4428 42.1147 33.3544 43.0357 31.0552 43.1168V41.1386ZM34.2106 36.9131C34.8462 36.1803 35.2515 35.2496 35.3229 34.2248H37.3107C37.2329 35.7944 36.6038 37.2245 35.6147 38.3173L34.2106 36.9131ZM35.3229 33.5633C35.2515 32.5385 34.8429 31.6078 34.2106 30.8717L35.6147 29.4675C36.6038 30.5636 37.2329 31.9872 37.3107 33.56H35.3229V33.5633ZM23.9728 27.6028L25.3737 29.0005C24.2646 30.2134 23.5642 31.8056 23.4831 33.56H21.5049C21.586 31.2608 22.507 29.1756 23.9728 27.6028ZM21.5049 34.2216H23.4831C23.5609 35.976 24.2646 37.5682 25.3737 38.781L23.9728 40.1787C22.507 38.6059 21.586 36.5208 21.5049 34.2216ZM37.4859 40.1787L36.0882 38.781C37.1972 37.5682 37.8977 35.976 37.9755 34.2216H39.9537C39.8726 36.5208 38.9516 38.6059 37.4859 40.1787Z" fill="#004976"/>
<path d="M31.9573 25.9558L32.5119 25.7742L32.8232 25.8779L33.115 25.638L33.1313 25.5569L32.5897 25.2877L32.4438 25.2812L31.7822 25.612L31.6006 25.5472L31.5228 25.6639L31.8763 25.9493H31.9606L31.9573 25.9558ZM36.0758 26.9351L35.8358 26.5557L35.4564 26.5298V26.7503L36.0434 26.9967L36.0758 26.9319V26.9351ZM37.5935 29.4192L37.24 29.1986L37.2854 28.8257L35.7418 27.227L34.6976 26.9708L34.5906 27.4118L35.0673 27.7556L34.9538 28.5955L35.3883 28.6733L35.6607 28.9879L35.7385 29.5586L36.1796 29.7435L36.6076 30.4147L37.2043 30.1553L37.6486 30.9239L38.1739 30.7066L38.2291 30.4309L37.5902 29.4127L37.5935 29.4192ZM36.5136 34.8996L36.5201 35.1072L36.8249 35.3731L36.9643 35.2239L36.9773 35.0747L36.7179 34.8931L36.5103 34.8996H36.5136ZM36.88 32.9863L37.0097 32.8793V32.4869L36.786 32.6037L36.7373 32.8631L36.5136 33.3333L36.5525 33.8035L37.0681 34.1181L37.0097 33.1906L36.88 32.9831V32.9863ZM30.9131 34.3062L30.845 34.2511L30.297 34.2705L30.164 34.6207L29.71 35.1039L30.0473 35.3471L30.7348 34.8899L30.9099 34.3062H30.9131ZM36.2347 38.0939L36.1374 38.1295L36.199 38.3371L36.0661 38.5381L36.0142 39.1024L36.1698 39.2937L36.5947 39.2808L36.7438 38.9986L36.6109 38.3825L36.2347 38.0971V38.0939ZM34.7657 36.0379L34.9732 35.5158L35.09 35.8628L35.2651 35.8076L35.3267 35.5417L35.5245 35.6714L36.4228 35.412L36.1893 34.864L35.891 34.6564L35.5894 34.1732L35.9947 33.3236L36.2704 33.2328L36.4941 32.8826L36.7276 31.7378L36.6206 31.3065L36.3352 31.2287L36.439 30.9044L36.2055 30.8363L36.3093 30.6223L36.2444 30.5055L35.9818 30.6417L35.6413 30.0807L35.4467 30.0548L35.4856 29.8602L34.0166 28.4722L33.9517 28.563L34.0814 29.043L35.5732 30.9109L35.5634 31.4914L36.1634 31.8675L36.332 32.688L36.1342 33.0674L35.9007 33.116L36.0823 32.5161L35.638 32.101L35.3526 32.3215L35.2489 32.2016L35.3397 31.9681L34.9894 31.5497L34.0782 31.42L33.7215 31.9681L33.2642 31.3033L32.9464 31.3649L33.1669 31.4719L33.0242 31.7994L32.7648 31.8351L32.2557 32.3572H31.8795L31.5812 32.1983L31.672 32.0037L32.1908 31.7054L32.2946 31.3L32.1779 31.1541L31.672 31.5854L30.4689 31.2384L30.1089 31.4427L30.0051 31.9389L28.3188 31.5011L26.8757 32.247L26.7849 32.4318L26.4736 32.3799L26.2564 33.155L26.198 33.7225L25.6435 34.491L25.6889 35.2628L24.9592 34.6759L24.7387 34.7148L24.2004 35.172L24.1161 35.6163L24.2069 35.9925L24.009 36.1871L23.1626 35.7979L22.9551 35.866L22.8902 36.0476L22.7605 36.0865L22.6405 35.9568H22.433L22.2773 36.5438L22.4914 37.1956L23.0718 37.5815L23.2113 37.3285L23.5421 37.8312L24.2847 38.2106L24.5182 38.7165L25.3516 39.3035L25.8186 39.1867L26.3407 39.4072L26.9665 39.1446L27.4497 39.2094L27.5795 39.0278L26.5612 37.815L26.7947 37.5134L26.4347 36.9394L26.5061 36.2389L26.0131 35.1072L25.9386 34.5656L26.3731 34.3419L26.8368 33.0415L27.0865 33.0544L27.1481 34.5786L26.6131 34.5397L26.5093 35.1655L26.7168 35.2953L26.8725 34.7991L28.2669 35.052L28.228 35.1947L28.7761 35.7428L29.7068 34.8348L29.9857 34.2608L29.9532 34.0792L29.7392 34.1311L29.7133 34.3127L28.3967 34.6726L28.8636 33.6965L29.2722 33.729L29.6387 33.9689L29.8041 33.9333L29.7652 33.3398L30.1219 33.2004L30.1348 32.8372L30.6829 32.7399L30.5272 32.2826L30.7672 32.1691L31.1596 32.3734L30.8061 32.5291L31.0201 32.8501L31.1596 32.7237L31.5358 33.1744H31.8017L31.7498 33.382L31.9541 33.502L31.7206 33.8035L32.006 34.144L31.993 34.4943H32.1746L31.8601 35.052L31.4547 35.0423L30.7769 36.213L30.9099 36.3395L30.7931 36.4335L30.7802 36.6021L30.9488 36.8356L30.5564 36.8875L30.6083 37.4745L31.4677 36.9135L32.019 37.1761L32.2914 37.1113V36.9653L32.434 36.8227L32.6027 37.0172L32.9691 36.7319L33.1604 37.0172L32.9043 37.3577L32.2914 37.6074L32.2784 37.828L31.7303 37.7209L31.5196 37.5134H31.1823L30.9974 37.6431L30.5143 37.5393L29.7068 38.0874L29.4214 38.616L29.6549 39.1867L31.4125 40.1045L31.9606 40.0234L31.8309 40.5066L32.1065 40.9508L33.3939 42.0599L33.6793 42.0469L34.4381 41.5021L35.2554 39.9261L35.0219 39.7283L35.4532 39.1446L34.5387 38.937L34.516 38.6257L35.051 38.3079L35.1289 37.7112L35.0381 37.2053L34.8694 37.228L34.7657 37.6593L34.6749 37.7761L33.916 37.9447L33.0048 37.4291L33.1475 37.1794L34.5419 37.5426L34.944 36.44L34.6781 36.226L34.4771 36.2552L33.8674 36.5016L33.9452 36.3589L34.7689 36.0346L34.7657 36.0379ZM32.8232 36.3622L32.5897 36.5405L32.2978 36.4886L32.3173 36.2033L32.4924 36.0995L32.8621 36.2422L32.8232 36.3589V36.3622ZM33.3939 36.0865L33.1086 35.892L32.9756 35.5806L33.2577 35.4088L33.462 35.6552L33.5528 35.9147L33.3875 36.0865H33.3939Z" fill="#004976"/>
<path d="M73.4809 24.543V41.4676C73.4809 44.8985 70.9839 47.8625 62.4713 47.8625C53.9588 47.8625 51.4585 44.8985 51.4585 41.4676V24.543H57.7205V40.9909C57.7205 42.8231 59.076 43.877 62.4713 43.877C65.8666 43.877 67.2221 42.8231 67.2221 40.9909V24.543H73.4809Z" fill="#004976"/>
<path d="M84.8584 31.7551V47.1685H78.9175V24.543H86.7166L96.2766 40.6731V24.543H102.221V47.1685H94.3763L84.8584 31.7551Z" fill="#004976"/>
<path d="M135.366 24.543H146.284C152.757 24.543 155.024 26.6508 155.024 30.111V33.4739C155.024 36.9729 152.757 39.0808 146.284 39.0808H139.26V47.1653H135.366V24.543ZM146.145 27.16H139.26V36.467H146.145C149.861 36.467 151.295 35.6823 151.295 33.0782V30.5423C151.295 28.0615 149.865 27.1567 146.145 27.1567" fill="#004976"/>
<path d="M119.145 24.002C111.359 24.002 108.232 26.2039 108.232 29.9753V41.734C108.232 45.5055 111.359 47.7042 119.148 47.7042C126.937 47.7042 130.063 45.5055 130.063 41.734V29.9753C130.06 26.2039 126.937 24.002 119.145 24.002ZM126.175 41.6367C126.175 44.4224 123.905 45.0937 119.151 45.0937C114.397 45.0937 112.127 44.4224 112.127 41.6367V30.0694C112.127 27.2837 114.397 26.6125 119.151 26.6125C123.905 26.6125 126.175 27.2837 126.175 30.0694V41.6367Z" fill="#004976"/>
<path d="M167.974 47.604C165.071 47.604 162.124 47.1954 159.539 46.4139L160.175 44.0368C162.938 44.6822 165.302 44.9902 168.061 44.9902C172.909 44.9902 173.905 44.0693 173.905 41.4912C173.905 38.4331 173.86 38.0602 167.653 37.0063C160.366 35.7837 159.503 34.6292 159.503 29.9433C159.503 26.0032 161.679 24.0996 169.148 24.0996C171.774 24.0996 174.366 24.372 176.769 24.8487L176.451 27.3587C174.051 26.9533 171.736 26.7134 169.242 26.7134C164.303 26.7134 163.398 27.43 163.398 30.0438C163.398 33.1699 163.398 33.4034 169.378 34.5255C177.391 36.0237 177.8 37.0063 177.8 41.4198C177.8 45.3599 176.263 47.604 167.974 47.604Z" fill="#004976"/>
</svg>
