<svg viewBox="0 0 512 512" xmlns="http://www.w3.org/2000/svg"><circle cx="256" cy="256" fill="#338af3" r="256"/><g fill="#f0f0f0"><path d="m256 0c-11.317 0-22.461.744-33.391 2.167v88.225l-33.392-33.392-33.391 55.652h-55.652l22.261 44.522-66.783 22.261v33.391l44.522 22.261-44.522 55.652h44.522l-22.261 66.783 55.652 22.261 33.391-33.391v55.652l33.392 33.391 33.391-33.391 33.391 33.391 33.392-33.391v-55.652l33.391 33.391 55.652-22.261-22.261-66.783h44.522l-44.522-55.652 44.522-22.261v-33.391l-66.783-22.261 22.261-44.522h-55.652l-33.391-55.652-33.392 33.392v-88.225c-10.93-1.423-22.074-2.167-33.391-2.167z"/><path d="m200.348 256h-66.783v-44.522l-33.391-22.261 22.261-22.261h66.783l33.391-33.391v-22.261l33.391-33.392v-22.261h-66.783v44.522l-33.391 33.391h-44.522l-22.261 33.392v44.522l-22.261 22.261v44.522l44.522 44.522v44.522l44.522 22.261h44.522v-44.522l-33.391-22.261v-66.783z"/></g></svg>
